<?xml version="1.0" encoding="utf-8"?>
<!-- Generator: Adobe Illustrator 23.0.3, SVG Export Plug-In . SVG Version: 6.00 Build 0)  -->
<svg version="1.1" id="Layer_1" xmlns="http://www.w3.org/2000/svg" xmlns:xlink="http://www.w3.org/1999/xlink" x="0px" y="0px"
	 viewBox="0 0 100 13.7" style="enable-background:new 0 0 100 13.7;" xml:space="preserve">
<style type="text/css">
	.st0{fill:#FFFFFF;}
</style>
<title>logo-addictive</title>
<g>
	<g id="Layer_1-2">
		<path class="st0" d="M0.1,13.3C0,13.2-0.1,13.1,0,13L4.1,0.5c0-0.1,0.1-0.1,0.1-0.2c0.1,0,0.1-0.1,0.2-0.1h1.2
			c0.1,0,0.2,0,0.2,0.1c0.1,0,0.1,0.1,0.1,0.2L10.2,13c0,0,0,0.1,0,0.1c0,0.1,0,0.1-0.1,0.2c-0.1,0.1-0.1,0.1-0.2,0.1H9
			c-0.1,0-0.2,0-0.2-0.1c-0.1,0-0.1-0.1-0.1-0.2l-1-3.3H2.7l-1.1,3.3c0,0.1-0.1,0.1-0.1,0.2c-0.1,0-0.1,0.1-0.2,0.1H0.3
			C0.2,13.5,0.1,13.4,0.1,13.3z M7.2,8.5l-2-6.3l-2,6.3H7.2z M12.8,13.3c-0.1-0.1-0.2-0.3-0.2-0.5V1c0-0.2,0.1-0.4,0.2-0.5
			c0.1-0.1,0.3-0.2,0.5-0.2h3.4c0.9,0,1.7,0.2,2.5,0.7c1.5,0.9,2.5,2.6,2.5,4.3v3.1c0,1.8-0.9,3.4-2.5,4.3c-0.8,0.4-1.6,0.7-2.5,0.7
			h-3.4C13.1,13.5,12.9,13.4,12.8,13.3z M16.7,12c1.2,0,2.3-0.6,2.9-1.7c0.3-0.5,0.5-1.1,0.5-1.7V5.1c0-0.6-0.2-1.2-0.5-1.7
			c-0.3-0.5-0.7-0.9-1.2-1.2c-0.5-0.3-1.1-0.5-1.7-0.5h-2.5V12H16.7z M24.8,13.3c-0.1-0.1-0.2-0.3-0.2-0.5V1c0-0.2,0.1-0.4,0.2-0.5
			c0.1-0.1,0.3-0.2,0.5-0.2h3.4c0.9,0,1.7,0.2,2.5,0.7c0.7,0.4,1.4,1.1,1.8,1.8c0.4,0.8,0.7,1.6,0.7,2.5v3.1c0,0.9-0.2,1.8-0.7,2.6
			c-0.4,0.8-1.1,1.4-1.8,1.8c-0.8,0.4-1.6,0.7-2.5,0.7h-3.4C25.1,13.5,24.9,13.4,24.8,13.3L24.8,13.3z M28.6,12
			c0.6,0,1.2-0.2,1.7-0.4c0.5-0.3,0.9-0.7,1.2-1.2C31.9,9.8,32,9.2,32,8.6V5.1c0-0.6-0.1-1.2-0.5-1.7c-0.3-0.5-0.7-0.9-1.2-1.2
			c-0.5-0.3-1.1-0.5-1.7-0.5h-2.5V12H28.6z M35.8,13.4c0-0.1-0.1-0.1-0.1-0.2v-0.9c0-0.1,0-0.1,0.1-0.2c0-0.1,0.1-0.1,0.2-0.1h1.9
			V1.7h-1.9c-0.1,0-0.1,0-0.2-0.1c0-0.1-0.1-0.1-0.1-0.2V0.5c0-0.1,0-0.1,0.1-0.2c0.1,0,0.1-0.1,0.2-0.1h5.4c0.1,0,0.1,0,0.2,0.1
			c0.1,0.1,0.1,0.1,0.1,0.2v0.9c0,0.1-0.1,0.3-0.3,0.3l0,0h-1.9V12h1.9c0.1,0,0.3,0.1,0.3,0.3v0v0.9c0,0.1,0,0.1-0.1,0.2
			c-0.1,0-0.1,0.1-0.2,0.1h-5.4C35.9,13.4,35.8,13.4,35.8,13.4L35.8,13.4z M46.1,13.1c-0.7-0.4-1.3-1-1.7-1.7
			c-0.4-0.7-0.6-1.5-0.6-2.3V4.6c0-0.8,0.2-1.6,0.6-2.3c0.4-0.7,1-1.3,1.7-1.7C46.8,0.2,47.6,0,48.4,0c0.6,0,1.3,0.1,1.9,0.3
			c0.6,0.2,1.1,0.6,1.5,1c0.1,0.1,0.1,0.1,0.1,0.2c0,0.1,0,0.2-0.1,0.2l-0.5,0.6c-0.1,0.1-0.2,0.1-0.3,0.1c-0.1,0-0.2,0-0.3-0.1
			c-0.6-0.6-1.5-0.9-2.3-0.9c-0.5,0-1.1,0.1-1.5,0.4c-0.5,0.3-0.8,0.7-1.1,1.2c-0.3,0.5-0.4,1-0.4,1.6v4.4c0,0.5,0.1,1.1,0.4,1.6
			c0.3,0.5,0.6,0.9,1.1,1.2c0.4,0.3,1,0.4,1.5,0.4c0.9,0,1.7-0.3,2.3-0.9c0.1-0.1,0.2-0.1,0.3-0.1c0.1,0,0.2,0,0.3,0.1l0.5,0.6
			c0.1,0.1,0.1,0.2,0.1,0.2c0,0.1,0,0.2-0.1,0.2c-0.4,0.4-1,0.8-1.5,1c-0.6,0.2-1.2,0.4-1.9,0.4C47.6,13.7,46.8,13.5,46.1,13.1
			L46.1,13.1z M57.4,13.4c0-0.1-0.1-0.1-0.1-0.2V1.7H54c-0.1,0-0.1,0-0.2-0.1c0-0.1-0.1-0.1-0.1-0.2V0.5c0-0.1,0-0.1,0.1-0.2
			c0.1,0,0.1-0.1,0.2-0.1h8.1c0.1,0,0.1,0,0.2,0.1c0.1,0,0.1,0.1,0.1,0.2v0.9c0,0.1,0,0.1-0.1,0.2c0,0.1-0.1,0.1-0.2,0.1h-3.3v11.5
			c0,0.1-0.1,0.2-0.2,0.3c0,0,0,0,0,0h-1C57.5,13.5,57.4,13.4,57.4,13.4L57.4,13.4z M64.5,13.4c0-0.1-0.1-0.1-0.1-0.2v-0.9
			c0-0.1,0-0.1,0.1-0.2c0.1-0.1,0.1-0.1,0.2-0.1h1.9V1.7h-1.9c-0.1,0-0.1,0-0.2-0.1c0-0.1-0.1-0.1-0.1-0.2V0.5c0-0.1,0-0.1,0.1-0.2
			c0.1,0,0.1-0.1,0.2-0.1h5.4c0.1,0,0.1,0,0.2,0.1c0.1,0.1,0.1,0.1,0.1,0.2v0.9c0,0.1-0.1,0.3-0.3,0.3h-1.9V12h1.9
			c0.1,0,0.3,0.1,0.3,0.3v0.9c0,0.1,0,0.1-0.1,0.2c-0.1,0-0.1,0.1-0.2,0.1h-5.4C64.7,13.4,64.6,13.4,64.5,13.4L64.5,13.4z
			 M76.7,13.4c-0.1,0-0.1-0.1-0.1-0.2L72.6,0.7c0,0,0-0.1,0-0.1c0-0.1,0-0.1,0.1-0.2c0.1-0.1,0.1-0.1,0.2-0.1h0.9
			c0.1,0,0.2,0,0.2,0.1c0.1,0,0.1,0.1,0.1,0.2l3.3,11l3.3-11c0-0.1,0.1-0.1,0.2-0.2c0.1,0,0.1-0.1,0.2-0.1h0.9
			c0.2,0,0.3,0.1,0.3,0.3c0,0.1,0,0.1,0,0.1l-3.9,12.5c0,0.1-0.1,0.1-0.1,0.2c-0.1,0-0.1,0.1-0.2,0.1h-1.2
			C76.8,13.5,76.7,13.4,76.7,13.4z M85.2,13.3C85.1,13.1,85,13,85,12.8V1c0-0.2,0.1-0.4,0.2-0.5c0.1-0.1,0.3-0.2,0.5-0.2h6.2
			c0.1,0,0.1,0,0.2,0.1c0.1,0.1,0.1,0.1,0.1,0.2v0.9c0,0.1-0.1,0.3-0.3,0.3h-5.4v4h4.1c0.1,0,0.1,0,0.2,0.1c0.1,0.1,0.1,0.1,0.1,0.2
			v0.9c0,0.1,0,0.1-0.1,0.2c0,0.1-0.1,0.1-0.2,0.1h-4.1V12h5.4c0.1,0,0.3,0.1,0.3,0.3v0.9c0,0.1,0,0.1-0.1,0.2
			c-0.1,0-0.1,0.1-0.2,0.1h-6.2C85.5,13.5,85.3,13.4,85.2,13.3z M97.4,2.2h-0.6c-0.1,0-0.3,0.1-0.4,0.2c-0.2,0.2-0.2,0.6,0,0.8
			c0,0,0,0,0,0c0.1,0.1,0.2,0.2,0.4,0.2h0.6c0.1,0,0.3-0.1,0.4-0.2c0.2-0.2,0.2-0.6,0-0.8c0,0,0,0,0,0C97.7,2.2,97.6,2.2,97.4,2.2z
			 M97.4,6.3L97.4,6.3v1.1l0,0c0.1,0,0.3-0.1,0.4-0.2C97.9,7.1,98,7,98,6.8C98,6.5,97.8,6.3,97.4,6.3L97.4,6.3z M99.7,0.4h-4.6
			c-0.2,0-0.3,0.1-0.3,0.3v12.5c0,0.2,0.2,0.3,0.3,0.3h4.6c0.2,0,0.3-0.1,0.3-0.3V0.7C100,0.5,99.8,0.4,99.7,0.4z M98.4,10
			C98.4,10,98.4,10.1,98.4,10C98.4,10.1,98.4,10.1,98.4,10l-1.9,0.7l1.8,0.6c0,0,0.1,0,0.1,0.1c0,0,0,0.1,0,0.1v0.3c0,0,0,0.1,0,0.1
			c0,0,0,0-0.1,0l0,0L95.9,11h-0.1c0,0,0-0.1,0-0.1v-0.4c0-0.1,0-0.1,0.1-0.1l2.4-0.8l0,0c0,0,0,0,0.1,0c0,0,0,0.1,0,0.1L98.4,10z
			 M98.3,7.4c-0.1,0.2-0.2,0.3-0.4,0.4c-0.2,0.1-0.4,0.1-0.6,0.1h-0.3c0,0-0.1,0-0.1,0c0,0-0.1-0.1-0.1-0.1V6.3l0,0
			c-0.1,0-0.3,0.1-0.4,0.2c-0.1,0.1-0.2,0.2-0.2,0.4v0.7c0,0.1,0,0.1-0.1,0.1h-0.3c0,0,0,0-0.1,0c0,0,0,0,0-0.1V6.8
			c0-0.4,0.2-0.8,0.5-0.9c0.2-0.1,0.4-0.2,0.6-0.2h0.5c0.2,0,0.4,0.1,0.6,0.2c0.2,0.1,0.3,0.2,0.4,0.4c0.1,0.2,0.2,0.4,0.2,0.6
			C98.5,7,98.4,7.2,98.3,7.4L98.3,7.4z M99.3,3.7C99.3,3.8,99.3,3.8,99.3,3.7C99.3,3.8,99.3,3.8,99.3,3.7L96,3.8c0,0,0,0-0.1,0
			c0,0,0,0,0-0.1V3.4c0,0,0,0,0-0.1H96h0.2C96.1,3.3,96,3.2,95.9,3c-0.1-0.1-0.1-0.2-0.1-0.4c0-0.2,0.1-0.3,0.1-0.5
			C96,2,96.2,1.9,96.3,1.8c0.2-0.1,0.3-0.1,0.5-0.1h0.6c0.2,0,0.4,0,0.5,0.1c0.2,0.1,0.3,0.2,0.4,0.4c0.1,0.3,0.2,0.6,0.1,0.8
			c0,0.1-0.1,0.2-0.2,0.3h0.9c0,0,0,0,0.1,0c0,0,0,0,0,0.1L99.3,3.7z"/>
	</g>
</g>
</svg>
